<?xml version="1.0" encoding="UTF-8"?>
<svg id="Layer_1" xmlns="http://www.w3.org/2000/svg" width="29.22" height="24.3" viewBox="0 0 29.22 24.3">
  <defs>
    <style>
      .cls-1 {
        fill: #fff;
      }
    </style>
  </defs>
  <path class="cls-1" d="M0,12.15c0-2.51,2.04-4.56,4.56-4.56h7.24c-1.56-1.74-1.49-4.59.17-6.26.85-.85,2.01-1.33,3.22-1.33s2.37.48,3.22,1.33l10.82,10.82-10.82,10.82c-.85.85-2.01,1.33-3.22,1.33s-2.37-.48-3.22-1.33c-1.66-1.66-1.73-4.52-.17-6.26h-7.24c-2.51,0-4.56-2.04-4.56-4.56ZM19.12,10.63H4.56c-.39.02-.76.19-1.03.47-.27.28-.42.66-.42,1.05s.15.77.42,1.05c.27.28.64.45,1.03.47h14.56l-5,5c-.28.29-.43.67-.43,1.07s.15.78.43,1.07c.28.28.67.44,1.07.44s.79-.16,1.07-.44l8.67-8.67L16.26,3.48c-.28-.28-.67-.44-1.07-.44s-.79.16-1.07.44c-.28.29-.43.67-.43,1.07s.15.78.43,1.07l5,5Z"/>
</svg>