<?xml version="1.0" encoding="UTF-8"?>
<svg id="Layer_1" xmlns="http://www.w3.org/2000/svg" width="29.05" height="24.19" viewBox="0 0 29.05 24.19">
  <defs>
    <style>
      .cls-1 {
        fill: #fff;
      }

      .cls-2 {
        fill: none;
        stroke: #755410;
      }
    </style>
  </defs>
  <path class="cls-1" d="M.03,13.9c-.3-2.49,1.49-4.77,3.98-5.07l7.18-.86c-1.75-1.54-2.02-4.38-.57-6.24.75-.95,1.84-1.56,3.04-1.71,1.2-.14,2.41.19,3.36.94l12.03,9.45-9.45,12.03c-.75.95-1.84,1.56-3.04,1.71-1.2.14-2.41-.19-3.36-.94-1.85-1.45-2.26-4.29-.92-6.19l-7.18.86c-2.49.3-4.77-1.49-5.07-3.98ZM18.83,10.12l-14.46,1.73c-.39.06-.73.27-.97.59-.23.31-.34.7-.29,1.09.05.39.24.74.54.99.3.25.69.37,1.08.34l14.46-1.73-4.37,5.56c-.24.32-.35.72-.3,1.12.05.4.25.76.56,1.01.32.25.72.36,1.12.31.4-.05.76-.25,1.01-.57l7.57-9.64L15.15,3.36c-.32-.25-.72-.36-1.12-.31-.4.05-.76.25-1.01.57-.24.32-.35.72-.3,1.12.05.4.25.76.56,1.01l5.56,4.37Z"/>
  <path class="cls-2" d="M11.26,8.47l1.11-.13-.84-.74c-1.55-1.36-1.8-3.91-.51-5.55.66-.85,1.64-1.39,2.71-1.52,1.07-.13,2.14.17,2.99.84h0l11.63,9.14-9.14,11.63h0c-.66.85-1.64,1.39-2.71,1.52-1.07.13-2.14-.17-2.99-.84h0c-1.64-1.29-2-3.82-.82-5.51l.64-.92-1.11.13-7.18.86c-2.22.27-4.24-1.32-4.51-3.54-.27-2.22,1.32-4.24,3.54-4.51l7.18-.86ZM17.57,9.77l-13.26,1.59h-.01s-.01,0-.01,0c-.51.08-.97.36-1.29.78-.31.42-.45.94-.39,1.45s.32.99.72,1.32c.4.33.92.49,1.43.45h.01s.01,0,.01,0l13.26-1.59-3.62,4.61h0s0,0,0,0c-.32.42-.46.95-.4,1.48.06.52.33,1.01.73,1.34h0s0,0,0,0c.42.33.96.48,1.49.42s1.02-.34,1.35-.76h0s7.57-9.64,7.57-9.64l.31-.39-.39-.31L15.46,2.97h0c-.42-.33-.96-.48-1.49-.42-.53.06-1.02.34-1.35.76h0s0,0,0,0c-.32.42-.46.95-.4,1.48.06.53.33,1.01.73,1.34h0s0,0,0,0l4.61,3.62Z"/>
</svg>